<svg width="56" height="56" viewBox="0 0 56 56" fill="none" xmlns="http://www.w3.org/2000/svg">
<path d="M51.6744 27.9999C51.6744 41.2589 40.9258 52.0075 27.6667 52.0075C14.4077 52.0075 3.65906 41.2589 3.65906 27.9999C3.65906 14.7408 14.4077 3.99219 27.6667 3.99219C40.9258 3.99219 51.6744 14.7408 51.6744 27.9999Z" fill="#D2FF1E"/>
<path d="M27.6667 0.5C12.4884 0.5 0.159546 12.8145 0.159546 28.0072C0.159546 43.1998 12.474 55.5 27.6667 55.5C42.8594 55.5 55.1739 43.1855 55.1739 28.0072C55.1739 12.8288 42.8737 0.5 27.6667 0.5ZM28.6404 36.4984V49.8582H26.7073V36.4984C26.7073 32.2368 23.4492 28.9809 19.1897 28.9809H5.84426V27.0478H19.1897C23.4627 27.0478 26.7073 23.798 26.7073 19.5302V6.15608H28.6404V19.5016C28.6404 23.7602 31.9019 27.0191 36.158 27.0191H49.5178V28.9522H36.158C31.7666 28.9522 28.6404 32.145 28.6404 36.4984Z" fill="#008351"/>
</svg>
