<svg xmlns="http://www.w3.org/2000/svg" width="128" height="128" viewBox="0 0 128 128" fill="none">
  <rect width="128" height="128" rx="18" fill="white"/>
  <path d="M63.9 12.5C69.6 24.6 75.7 34.8 85.7 43.2C95.1 51.1 103.1 60.1 105.7 72.3C108.4 85.3 100.4 103.6 84.3 107.9C75.4 110.3 67.5 106.9 63.9 98.3C60.3 106.9 52.4 110.3 43.5 107.9C27.4 103.6 19.4 85.3 22.1 72.3C24.7 60.1 32.7 51.1 42.1 43.2C52.1 34.8 58.2 24.6 63.9 12.5Z" stroke="#00BF1B" stroke-width="3" fill="none"/>
  <path d="M63.9 20C58.8 32.2 54.7 45.7 57.5 60.4C59.1 68.9 62.1 76.3 63.9 84.8C65.7 76.3 68.7 68.9 70.3 60.4C73.1 45.7 69 32.2 63.9 20Z" stroke="#00BF1B" stroke-width="3" fill="none"/>
  <path d="M50 74C39 69 28 75 27 87C38 84 51 87 57 100C60 88 58 78 50 74Z" stroke="#00BF1B" stroke-width="3" fill="none"/>
  <path d="M78 74C89 69 100 75 101 87C90 84 77 87 71 100C68 88 70 78 78 74Z" stroke="#00BF1B" stroke-width="3" fill="none"/>
</svg>
